<svg xmlns="http://www.w3.org/2000/svg" width="65.5" height="65.5" viewBox="0 0 65.5 65.5">
  <g id="responsivo" transform="translate(-666 -270)">
    <g id="Group_2" data-name="Group 2" transform="translate(666 270)">
      <g id="Group_1" data-name="Group 1">
        <path id="Path_93" data-name="Path 93" d="M65.449,18.987V4.224A4.256,4.256,0,0,0,61.171,0H4.279A4.256,4.256,0,0,0,0,4.224V52.467a4.283,4.283,0,0,0,4.279,4.279H32.416v3.094A5.667,5.667,0,0,0,38.076,65.5H59.839A5.667,5.667,0,0,0,65.5,59.839V19.733A5.7,5.7,0,0,0,65.449,18.987ZM2.559,4.224a1.675,1.675,0,0,1,1.72-1.665H61.171a1.675,1.675,0,0,1,1.72,1.665V14.969a5.623,5.623,0,0,0-2.432-.862h0l-.122-.011h0V6.341a1.279,1.279,0,0,0-1.279-1.279H6.4A1.279,1.279,0,0,0,5.117,6.341V44.485H2.559Zm29.857,45.1H19.634a1.279,1.279,0,1,0,0,2.559H32.416v2.307H4.279a1.722,1.722,0,0,1-1.72-1.72V47.044H32.416Zm0-9.457H14.176v-5.25h18.24ZM33.238,16.8l0,0c-.042.069-.082.14-.121.211l-.034.063q-.044.082-.085.166l-.03.061c-.035.073-.069.148-.1.223l-.015.037q-.04.1-.077.194l-.026.071q-.033.091-.062.184l-.018.055q-.036.118-.068.238c0,.019-.009.038-.014.057q-.024.1-.044.192c-.005.025-.01.05-.015.074q-.021.105-.038.212c0,.013,0,.026-.007.04-.013.083-.023.168-.032.252,0,.023,0,.046-.006.069q-.009.1-.015.2c0,.025,0,.05,0,.075,0,.087-.007.173-.007.261v8.106H14.176V16.631H33.343Q33.289,16.713,33.238,16.8ZM12.9,14.072a1.279,1.279,0,0,0-1.279,1.279V29.118A1.279,1.279,0,0,0,12.9,30.4H32.416v1.657H12.9a1.279,1.279,0,0,0-1.279,1.279v7.809A1.279,1.279,0,0,0,12.9,42.422H32.416v2.063H7.676V7.621h50.1v6.451ZM62.941,59.839a3.106,3.106,0,0,1-3.1,3.1H38.076a3.106,3.106,0,0,1-3.1-3.1V57.781H62.941Zm0-4.617H34.974V24.35H62.941Zm0-33.431H34.974V19.733a3.106,3.106,0,0,1,3.1-3.1H59.839c.091,0,.181,0,.27.013h.018a3.133,3.133,0,0,1,2.535,1.8l.01.022c.033.074.064.15.091.227l.015.044c.025.074.048.149.068.226,0,.015.007.03.01.045.018.075.034.151.046.228a3.107,3.107,0,0,1,.04.492Z" fill="#1d2228"/>
      </g>
    </g>
    <g id="Group_4" data-name="Group 4" transform="translate(720.262 288.381)">
      <g id="Group_3" data-name="Group 3">
        <path id="Path_94" data-name="Path 94" d="M416.376,141.22a1.361,1.361,0,0,0-.075-.246,1.33,1.33,0,0,0-.121-.226,1.273,1.273,0,0,0-.362-.362,1.352,1.352,0,0,0-.227-.121,1.336,1.336,0,0,0-.245-.076,1.3,1.3,0,0,0-.513,0,1.4,1.4,0,0,0-.245.076,1.334,1.334,0,0,0-.226.121,1.253,1.253,0,0,0-.2.163,1.307,1.307,0,0,0-.285,1.428,1.3,1.3,0,0,0,.121.227,1.343,1.343,0,0,0,.164.2,1.25,1.25,0,0,0,.2.162,1.325,1.325,0,0,0,.226.121,1.282,1.282,0,0,0,.245.075,1.316,1.316,0,0,0,.257.026,1.29,1.29,0,0,0,.256-.026,1.225,1.225,0,0,0,.245-.075,1.337,1.337,0,0,0,.227-.121,1.27,1.27,0,0,0,.362-.362,1.3,1.3,0,0,0,.121-.227,1.328,1.328,0,0,0,.075-.245,1.33,1.33,0,0,0,0-.511Z" transform="translate(-413.78 -140.164)" fill="#1d2228"/>
      </g>
    </g>
    <g id="Group_6" data-name="Group 6" transform="translate(709.486 288.381)">
      <g id="Group_5" data-name="Group 5">
        <path id="Path_95" data-name="Path 95" d="M338.713,140.17h-5.792a1.311,1.311,0,1,0,0,2.623h5.792a1.311,1.311,0,0,0,0-2.623Z" transform="translate(-331.61 -140.17)" fill="#1d2228"/>
      </g>
    </g>
    <g id="Group_10" data-name="Group 10" transform="translate(681.57 288.692)">
      <g id="Group_9" data-name="Group 9">
        <path id="Path_97" data-name="Path 97" d="M124.794,149.632l1.334-1.334a1.279,1.279,0,0,0-1.809-1.809l-2.239,2.239a1.279,1.279,0,0,0,0,1.809l2.239,2.239a1.279,1.279,0,0,0,1.809-1.809Z" transform="translate(-121.705 -146.114)" fill="#1d2228"/>
      </g>
    </g>
    <g id="Group_12" data-name="Group 12" transform="translate(687.445 279.013)">
      <g id="Group_11" data-name="Group 11">
        <path id="Path_98" data-name="Path 98" d="M170.164,71.484a1.285,1.285,0,0,0-.073-.239,1.262,1.262,0,0,0-.118-.221,1.3,1.3,0,0,0-.159-.194,1.285,1.285,0,0,0-.194-.159,1.37,1.37,0,0,0-.221-.118,1.3,1.3,0,0,0-.239-.073,1.266,1.266,0,0,0-.5,0,1.3,1.3,0,0,0-.239.073,1.371,1.371,0,0,0-.221.118,1.284,1.284,0,0,0-.194.159,1.3,1.3,0,0,0-.159.194,1.261,1.261,0,0,0-.118.221,1.29,1.29,0,0,0-.073.239,1.229,1.229,0,0,0,0,.5,1.335,1.335,0,0,0,.073.241,1.3,1.3,0,0,0,.276.414,1.261,1.261,0,0,0,.416.278,1.3,1.3,0,0,0,.239.072,1.293,1.293,0,0,0,.739-.072,1.36,1.36,0,0,0,.221-.118,1.375,1.375,0,0,0,.194-.16,1.3,1.3,0,0,0,.276-.414,1.332,1.332,0,0,0,.073-.241,1.29,1.29,0,0,0,0-.5Z" transform="translate(-167.63 -70.455)" fill="#1d2228"/>
      </g>
    </g>
    <g id="Group_14" data-name="Group 14" transform="translate(692.307 279.013)">
      <g id="Group_13" data-name="Group 13">
        <path id="Path_99" data-name="Path 99" d="M222.054,70.451H206.915a1.279,1.279,0,0,0,0,2.559h15.138a1.279,1.279,0,0,0,0-2.559Z" transform="translate(-205.636 -70.451)" fill="#1d2228"/>
      </g>
    </g>
    <g id="Group_16" data-name="Group 16" transform="translate(703.445 296.226)">
      <g id="Group_15" data-name="Group 15">
        <path id="Path_100" data-name="Path 100" d="M314.449,205.005H293.982a1.279,1.279,0,0,0-1.279,1.279v12.537a1.279,1.279,0,0,0,1.279,1.279h20.466a1.279,1.279,0,0,0,1.279-1.279V206.284A1.279,1.279,0,0,0,314.449,205.005Zm-19.187,12.537v-9.978h17.908v9.978Z" transform="translate(-292.703 -205.005)" fill="#1d2228"/>
      </g>
    </g>
    <g id="Group_18" data-name="Group 18" transform="translate(703.445 313.618)">
      <g id="Group_17" data-name="Group 17">
        <path id="Path_101" data-name="Path 101" d="M314.449,340.955H293.982a1.279,1.279,0,0,0-1.279,1.279v7.809a1.279,1.279,0,0,0,1.279,1.279h20.466a1.279,1.279,0,0,0,1.279-1.279v-7.809A1.279,1.279,0,0,0,314.449,340.955Zm-19.187,7.809v-5.25h17.908v5.25Z" transform="translate(-292.703 -340.955)" fill="#1d2228"/>
      </g>
    </g>
    <g id="Group_20" data-name="Group 20" transform="translate(720.664 301.961)">
      <g id="Group_19" data-name="Group 19">
        <path id="Path_102" data-name="Path 102" d="M408.922,239.116l-2.239-2.239a1.279,1.279,0,0,0-1.809,1.809l1.334,1.334-1.334,1.334a1.279,1.279,0,0,0,1.809,1.809l2.239-2.239A1.28,1.28,0,0,0,408.922,239.116Z" transform="translate(-407.416 -238.208)" fill="#1d2228"/>
      </g>
    </g>
    <g id="Group_22" data-name="Group 22" transform="translate(707.398 300.256)">
      <g id="Group_21" data-name="Group 21">
        <path id="Path_103" data-name="Path 103" d="M326.686,240.02l1.334-1.334a1.279,1.279,0,0,0-1.809-1.809l-2.239,2.239a1.279,1.279,0,0,0,0,1.809l2.239,2.239a1.279,1.279,0,0,0,1.809-1.809Z" transform="translate(-323.597 -236.502)" fill="#1d2228"/>
      </g>
    </g>
  </g>
</svg>
