<svg id="svg" version="1.1" xmlns="http://www.w3.org/2000/svg" xmlns:xlink="http://www.w3.org/1999/xlink" width="400" height="218.1818181818182" viewBox="0, 0, 400,218.1818181818182"><g id="svgg"><path id="path0" d="M134.302 41.335 C 133.636 41.823,133.525 170.797,134.191 171.399 C 135.105 172.226,153.386 172.346,154.701 171.533 C 155.054 171.315,155.100 123.671,154.749 121.549 C 154.592 120.601,154.583 119.661,154.721 118.712 C 154.835 117.932,154.930 117.223,154.933 117.136 C 154.944 116.753,156.252 116.300,156.682 116.530 C 157.108 116.758,157.193 116.981,157.434 118.496 C 157.501 118.917,157.791 119.703,158.078 120.243 C 158.367 120.785,158.719 122.007,158.864 122.969 C 159.008 123.929,159.273 125.057,159.453 125.477 C 159.927 126.589,160.330 128.053,160.500 129.275 C 160.581 129.864,160.844 130.611,161.084 130.936 C 161.360 131.309,161.627 132.242,161.812 133.478 C 161.980 134.602,162.298 135.760,162.561 136.207 C 162.843 136.684,163.116 137.728,163.268 138.912 C 163.437 140.220,163.709 141.205,164.114 141.974 C 164.442 142.598,164.781 143.622,164.867 144.251 C 164.954 144.879,165.211 145.710,165.439 146.096 C 165.667 146.482,166.035 147.630,166.257 148.648 C 166.480 149.665,166.829 150.753,167.035 151.066 C 167.240 151.380,167.507 152.354,167.628 153.232 C 167.749 154.110,168.037 155.136,168.269 155.512 C 168.500 155.889,168.847 157.067,169.039 158.131 C 169.230 159.195,169.627 160.775,169.920 161.642 C 170.214 162.509,170.548 163.807,170.664 164.527 C 170.780 165.247,171.070 166.166,171.308 166.570 C 171.546 166.973,171.856 168.119,171.997 169.115 L 172.253 170.926 173.229 171.357 C 175.686 172.444,193.640 172.382,194.227 171.285 C 194.490 170.795,194.408 41.580,194.145 41.317 C 193.820 40.991,173.869 40.966,173.426 41.290 C 173.064 41.555,173.045 42.804,173.083 63.612 C 173.105 75.734,173.126 87.076,173.129 88.816 C 173.135 92.474,173.011 92.866,171.800 93.014 C 170.383 93.187,170.328 93.116,169.863 90.524 C 169.698 89.602,169.372 88.522,169.138 88.123 C 168.905 87.724,168.551 86.520,168.351 85.447 C 168.152 84.375,167.769 83.000,167.500 82.392 C 167.232 81.785,166.947 80.879,166.867 80.379 C 166.787 79.879,166.488 78.995,166.201 78.415 C 165.915 77.834,165.574 76.733,165.443 75.968 C 165.313 75.202,165.013 74.171,164.778 73.677 C 164.543 73.182,164.203 71.908,164.023 70.847 C 163.844 69.786,163.555 68.754,163.382 68.556 C 162.986 68.102,162.640 66.987,162.457 65.576 C 162.379 64.975,162.092 64.043,161.819 63.502 C 161.295 62.466,160.829 60.625,160.829 59.590 C 160.829 59.204,160.657 58.858,160.368 58.667 C 160.030 58.443,159.826 57.929,159.602 56.745 C 159.434 55.856,159.165 54.975,159.005 54.788 C 158.606 54.320,158.470 53.888,158.210 52.257 C 158.086 51.487,157.742 50.397,157.443 49.836 C 157.145 49.275,156.901 48.593,156.901 48.320 C 156.901 47.516,156.412 45.526,156.127 45.172 C 155.869 44.851,155.672 44.304,155.108 42.343 C 154.897 41.609,154.694 41.332,154.283 41.219 C 153.110 40.897,134.757 41.003,134.302 41.335 M249.696 72.269 C 249.488 72.351,249.016 72.426,248.647 72.434 C 247.774 72.454,247.155 73.150,246.835 74.471 C 246.515 75.791,246.481 145.941,246.800 147.053 C 247.270 148.692,245.744 151.039,244.513 150.571 C 243.316 150.116,231.664 150.298,231.050 150.781 L 230.508 151.207 229.438 150.092 L 228.369 148.976 228.337 138.224 C 228.319 132.311,228.232 127.355,228.143 127.211 C 227.888 126.799,225.569 127.097,224.659 127.659 C 224.104 128.003,223.175 128.226,221.367 128.448 C 219.968 128.621,218.620 128.908,218.335 129.095 C 218.052 129.281,216.954 129.615,215.894 129.839 C 214.833 130.062,213.328 130.394,212.548 130.575 C 211.768 130.757,210.344 131.071,209.384 131.273 C 206.864 131.805,207.092 130.202,207.092 147.336 L 207.092 162.347 207.604 162.682 C 207.886 162.867,208.228 163.390,208.364 163.846 C 208.501 164.302,208.860 164.906,209.162 165.190 C 209.464 165.474,209.711 165.889,209.711 166.112 C 209.711 167.118,210.295 167.937,211.234 168.247 C 211.745 168.416,212.360 168.821,212.602 169.149 C 212.844 169.476,213.267 169.800,213.542 169.869 C 213.817 169.938,214.346 170.250,214.718 170.563 C 215.634 171.335,218.109 171.697,224.113 171.939 C 230.431 172.194,253.162 172.223,254.664 171.978 C 258.751 171.313,259.682 171.061,260.814 170.316 C 261.447 169.899,262.079 169.558,262.219 169.558 C 262.359 169.558,262.531 169.409,262.601 169.226 C 262.671 169.044,263.074 168.691,263.497 168.441 C 263.920 168.192,264.268 167.874,264.270 167.736 C 264.275 167.417,266.333 165.194,266.624 165.194 C 266.743 165.194,266.962 164.678,267.110 164.048 C 267.258 163.418,267.471 162.724,267.584 162.505 C 268.415 160.898,268.407 161.341,268.415 116.389 C 268.419 92.548,268.396 73.025,268.363 73.003 C 266.767 71.974,267.228 72.017,258.364 72.070 C 253.805 72.097,249.904 72.187,249.696 72.269 " stroke="none" fill="#f9fbf9" fill-rule="evenodd"></path><path id="path1" d="M0.000 109.111 L 0.000 218.221 200.000 218.221 L 400.000 218.221 400.000 109.111 L 400.000 0.000 200.000 0.000 L 0.000 0.000 0.000 109.111 M155.261 39.441 C 156.156 39.947,156.816 41.244,157.300 43.448 C 157.574 44.696,157.952 45.997,158.139 46.339 C 158.326 46.682,158.705 47.811,158.981 48.849 C 159.886 52.252,160.596 54.651,160.927 55.428 C 161.107 55.848,161.458 57.063,161.708 58.128 C 161.959 59.193,162.308 60.285,162.485 60.555 C 162.662 60.825,162.961 61.866,163.150 62.868 C 163.339 63.870,163.732 65.146,164.024 65.703 C 164.315 66.260,164.654 67.342,164.778 68.107 C 164.901 68.872,165.132 69.647,165.291 69.828 C 165.451 70.010,165.687 70.663,165.816 71.281 C 165.946 71.898,166.590 74.009,167.247 75.972 C 167.904 77.936,168.653 80.475,168.913 81.615 C 169.172 82.755,169.557 84.081,169.768 84.561 C 169.980 85.041,170.277 85.974,170.429 86.634 C 171.324 90.523,171.396 88.744,171.348 63.830 C 171.299 38.175,171.239 39.286,172.665 39.277 C 172.936 39.275,178.009 39.251,183.937 39.222 L 194.715 39.171 195.121 39.716 C 195.478 40.196,195.739 122.743,195.535 170.721 C 195.524 173.182,194.914 174.042,193.431 173.688 C 192.960 173.575,188.125 173.497,182.600 173.513 C 170.588 173.546,171.514 173.823,170.527 169.907 C 170.343 169.175,169.910 167.643,169.566 166.503 C 168.521 163.043,168.249 162.012,168.249 161.522 C 168.249 161.263,168.015 160.437,167.730 159.686 C 166.838 157.338,165.630 153.412,165.630 152.860 C 165.630 152.570,165.378 151.568,165.069 150.634 C 164.761 149.700,164.316 148.070,164.082 147.011 C 163.847 145.952,163.462 144.822,163.225 144.501 C 162.931 144.101,162.736 143.333,162.606 142.062 C 162.484 140.874,162.255 139.933,161.969 139.444 C 161.723 139.023,161.359 137.866,161.159 136.871 C 160.960 135.876,160.606 134.629,160.372 134.101 C 160.138 133.573,159.748 132.188,159.505 131.024 C 159.262 129.861,158.921 128.632,158.746 128.295 C 158.572 127.957,158.319 127.161,158.184 126.525 C 158.049 125.889,157.758 125.011,157.537 124.575 C 157.317 124.138,156.968 123.058,156.763 122.174 C 156.109 119.362,156.064 121.069,156.096 147.227 C 156.127 171.963,156.120 172.386,155.696 172.946 L 155.265 173.515 144.244 173.511 C 138.183 173.509,133.104 173.503,132.957 173.497 C 131.988 173.458,132.030 176.329,131.999 106.998 C 131.983 71.133,131.971 41.581,131.972 41.325 C 131.976 40.633,132.509 39.650,133.020 39.395 C 133.547 39.133,154.792 39.176,155.261 39.441 M268.677 70.919 C 268.762 70.921,269.008 71.111,269.222 71.341 C 269.666 71.817,269.879 122.386,269.552 149.736 L 269.394 162.975 268.887 163.661 C 268.608 164.039,268.188 164.905,267.954 165.586 C 267.719 166.267,267.203 167.169,266.807 167.591 C 266.410 168.013,265.780 168.742,265.407 169.210 C 265.034 169.679,264.293 170.318,263.761 170.629 C 263.228 170.940,262.223 171.577,261.526 172.045 C 259.458 173.433,258.748 173.476,237.637 173.481 C 215.071 173.487,214.645 173.439,211.566 170.558 C 210.966 169.997,210.230 169.419,209.931 169.273 C 209.632 169.128,209.249 168.715,209.080 168.356 C 208.911 167.997,208.486 167.373,208.136 166.970 C 207.502 166.240,207.077 165.416,206.263 163.339 C 205.660 161.802,205.378 132.096,205.958 131.159 C 206.655 130.031,207.158 129.624,207.856 129.624 C 209.175 129.624,213.005 128.954,214.056 128.540 C 215.261 128.065,218.332 127.441,219.466 127.441 C 219.895 127.441,220.467 127.252,220.781 127.005 C 221.086 126.765,221.602 126.568,221.928 126.568 C 222.753 126.568,226.352 125.798,226.903 125.503 C 227.835 125.004,229.059 125.198,229.578 125.926 C 230.051 126.591,230.053 126.637,230.025 137.070 C 230.007 143.560,230.081 147.860,230.218 148.369 L 230.439 149.191 237.190 149.241 C 244.362 149.294,245.262 149.181,245.293 148.221 C 245.300 148.014,245.299 130.717,245.291 109.782 C 245.277 72.265,245.283 71.712,245.705 71.263 C 246.102 70.840,255.592 70.698,268.677 70.919 " stroke="none" fill="#1c5a1c" fill-rule="evenodd"></path><path id="path2" d="M133.879 40.693 L 133.006 41.135 132.951 106.413 C 132.897 170.420,132.904 171.701,133.314 172.207 L 133.731 172.722 144.335 172.760 C 154.638 172.797,154.946 172.786,155.167 172.374 C 155.321 172.086,155.389 163.608,155.379 146.040 C 155.364 119.136,155.384 118.452,156.230 117.560 C 156.436 117.343,158.065 122.366,158.665 125.065 C 158.916 126.192,159.297 127.458,159.512 127.878 C 159.727 128.298,159.968 129.034,160.047 129.514 C 160.126 129.995,160.433 131.124,160.729 132.024 C 161.025 132.924,161.456 134.397,161.687 135.297 C 161.918 136.197,162.359 137.866,162.668 139.005 C 162.977 140.143,163.230 141.252,163.230 141.468 C 163.230 141.684,163.428 142.250,163.670 142.724 C 163.912 143.199,164.314 144.445,164.563 145.493 C 164.812 146.541,165.148 147.655,165.310 147.969 C 165.473 148.282,165.754 149.119,165.936 149.829 C 166.801 153.206,167.615 156.060,168.120 157.482 C 168.425 158.342,168.788 159.766,168.927 160.647 C 169.065 161.527,169.323 162.481,169.500 162.765 C 169.677 163.050,169.997 164.138,170.211 165.184 C 170.425 166.229,170.747 167.371,170.927 167.721 C 171.107 168.071,171.375 168.947,171.522 169.667 C 172.176 172.859,171.609 172.722,184.179 172.722 L 194.326 172.722 194.587 171.959 C 194.959 170.868,194.990 41.742,194.619 40.927 C 194.318 40.267,195.490 40.326,182.936 40.343 C 175.317 40.353,173.595 40.411,172.955 40.678 L 172.181 41.002 172.124 61.688 C 172.093 73.065,172.151 83.455,172.252 84.777 C 172.564 88.855,172.501 89.835,171.859 90.804 C 171.092 91.965,170.949 91.892,170.422 90.071 C 170.170 89.201,169.681 87.605,169.337 86.525 C 168.992 85.445,168.650 84.168,168.576 83.688 C 168.503 83.208,168.215 82.177,167.937 81.397 C 166.967 78.673,165.303 73.224,164.406 69.831 C 164.104 68.691,163.670 67.364,163.441 66.883 C 163.211 66.402,162.862 65.224,162.665 64.264 C 162.467 63.305,162.130 62.174,161.915 61.750 C 161.700 61.326,161.421 60.426,161.297 59.751 C 161.172 59.076,160.868 58.147,160.622 57.688 C 160.376 57.229,160.175 56.692,160.175 56.496 C 160.175 56.299,159.920 55.365,159.610 54.420 C 158.912 52.294,157.171 46.536,156.781 45.063 C 155.980 42.037,155.411 40.903,154.510 40.536 C 153.313 40.049,134.876 40.190,133.879 40.693 M154.283 41.219 C 154.694 41.332,154.897 41.609,155.108 42.343 C 155.672 44.304,155.869 44.851,156.127 45.172 C 156.412 45.526,156.901 47.516,156.901 48.320 C 156.901 48.593,157.145 49.275,157.443 49.836 C 157.742 50.397,158.086 51.487,158.210 52.257 C 158.470 53.888,158.606 54.320,159.005 54.788 C 159.165 54.975,159.434 55.856,159.602 56.745 C 159.826 57.929,160.030 58.443,160.368 58.667 C 160.657 58.858,160.829 59.204,160.829 59.590 C 160.829 60.625,161.295 62.466,161.819 63.502 C 162.092 64.043,162.379 64.975,162.457 65.576 C 162.640 66.987,162.986 68.102,163.382 68.556 C 163.555 68.754,163.844 69.786,164.023 70.847 C 164.203 71.908,164.543 73.182,164.778 73.677 C 165.013 74.171,165.313 75.202,165.443 75.968 C 165.574 76.733,165.915 77.834,166.201 78.415 C 166.488 78.995,166.787 79.879,166.867 80.379 C 166.947 80.879,167.232 81.785,167.500 82.392 C 167.769 83.000,168.152 84.375,168.351 85.447 C 168.551 86.520,168.905 87.724,169.138 88.123 C 169.372 88.522,169.698 89.602,169.863 90.524 C 170.328 93.116,170.383 93.187,171.800 93.014 C 173.011 92.866,173.135 92.474,173.129 88.816 C 173.126 87.076,173.105 75.734,173.083 63.612 C 173.045 42.804,173.064 41.555,173.426 41.290 C 173.869 40.966,193.820 40.991,194.145 41.317 C 194.408 41.580,194.490 170.795,194.227 171.285 C 193.640 172.382,175.686 172.444,173.229 171.357 L 172.253 170.926 171.997 169.115 C 171.856 168.119,171.546 166.973,171.308 166.570 C 171.070 166.166,170.780 165.247,170.664 164.527 C 170.548 163.807,170.214 162.509,169.920 161.642 C 169.627 160.775,169.230 159.195,169.039 158.131 C 168.847 157.067,168.500 155.889,168.269 155.512 C 168.037 155.136,167.749 154.110,167.628 153.232 C 167.507 152.354,167.240 151.380,167.035 151.066 C 166.829 150.753,166.480 149.665,166.257 148.648 C 166.035 147.630,165.667 146.482,165.439 146.096 C 165.211 145.710,164.954 144.879,164.867 144.251 C 164.781 143.622,164.442 142.598,164.114 141.974 C 163.709 141.205,163.437 140.220,163.268 138.912 C 163.116 137.728,162.843 136.684,162.561 136.207 C 162.298 135.760,161.980 134.602,161.812 133.478 C 161.627 132.242,161.360 131.309,161.084 130.936 C 160.844 130.611,160.581 129.864,160.500 129.275 C 160.330 128.053,159.927 126.589,159.453 125.477 C 159.273 125.057,159.008 123.929,158.864 122.969 C 158.719 122.007,158.367 120.785,158.078 120.243 C 157.791 119.703,157.501 118.917,157.434 118.496 C 157.193 116.981,157.108 116.758,156.682 116.530 C 156.252 116.300,154.944 116.753,154.933 117.136 C 154.930 117.223,154.835 117.932,154.721 118.712 C 154.583 119.661,154.592 120.601,154.749 121.549 C 155.100 123.671,155.054 171.315,154.701 171.533 C 153.386 172.346,135.105 172.226,134.191 171.399 C 133.525 170.797,133.636 41.823,134.302 41.335 C 134.757 41.003,153.110 40.897,154.283 41.219 M246.979 71.732 C 246.103 71.866,246.142 70.130,246.092 111.123 C 246.045 148.713,246.041 149.037,245.608 149.464 C 245.193 149.874,244.812 149.896,237.650 149.938 L 230.128 149.982 229.721 149.437 C 229.335 148.921,229.314 148.308,229.329 138.112 C 229.337 132.183,229.272 127.226,229.184 127.095 C 228.612 126.249,226.867 126.356,222.586 127.499 C 221.446 127.804,219.973 128.124,219.313 128.210 C 218.652 128.297,217.198 128.648,216.082 128.991 C 214.965 129.334,213.197 129.729,212.154 129.869 C 211.110 130.008,209.857 130.305,209.369 130.528 C 208.881 130.751,208.234 130.933,207.930 130.933 C 206.485 130.933,206.547 130.214,206.547 147.056 L 206.547 162.260 207.256 163.224 C 207.646 163.755,207.965 164.352,207.965 164.553 C 207.965 164.753,208.186 165.191,208.456 165.526 C 208.726 165.861,209.193 166.635,209.493 167.246 C 209.844 167.962,210.275 168.475,210.701 168.685 C 211.066 168.865,211.894 169.437,212.541 169.956 C 214.083 171.192,214.959 171.622,217.161 172.224 L 218.985 172.722 237.534 172.722 C 257.892 172.722,257.563 172.742,260.447 171.378 C 263.210 170.073,266.874 166.535,267.452 164.614 C 267.616 164.067,267.973 163.262,268.245 162.825 L 268.740 162.029 268.849 117.621 C 268.967 69.545,269.025 71.972,267.755 71.718 C 267.001 71.567,247.978 71.580,246.979 71.732 M267.479 72.493 C 267.932 72.752,268.330 72.982,268.363 73.003 C 268.396 73.025,268.419 92.548,268.415 116.389 C 268.407 161.341,268.415 160.898,267.584 162.505 C 267.471 162.724,267.258 163.418,267.110 164.048 C 266.962 164.678,266.743 165.194,266.624 165.194 C 266.333 165.194,264.275 167.417,264.270 167.736 C 264.268 167.874,263.920 168.192,263.497 168.441 C 263.074 168.691,262.671 169.044,262.601 169.226 C 262.531 169.409,262.359 169.558,262.219 169.558 C 262.079 169.558,261.447 169.899,260.814 170.316 C 259.682 171.061,258.751 171.313,254.664 171.978 C 253.162 172.223,230.431 172.194,224.113 171.939 C 218.109 171.697,215.634 171.335,214.718 170.563 C 214.346 170.250,213.817 169.938,213.542 169.869 C 213.267 169.800,212.844 169.476,212.602 169.149 C 212.360 168.821,211.745 168.416,211.234 168.247 C 210.295 167.937,209.711 167.118,209.711 166.112 C 209.711 165.889,209.464 165.474,209.162 165.190 C 208.860 164.906,208.501 164.302,208.364 163.846 C 208.228 163.390,207.886 162.867,207.604 162.682 L 207.092 162.347 207.092 147.336 C 207.092 130.202,206.864 131.805,209.384 131.273 C 210.344 131.071,211.768 130.757,212.548 130.575 C 213.328 130.394,214.833 130.062,215.894 129.839 C 216.954 129.615,218.052 129.281,218.335 129.095 C 218.620 128.908,219.968 128.621,221.367 128.448 C 223.175 128.226,224.104 128.003,224.659 127.659 C 225.569 127.097,227.888 126.799,228.143 127.211 C 228.232 127.355,228.319 132.311,228.337 138.224 L 228.369 148.976 229.438 150.092 L 230.508 151.207 231.050 150.781 C 231.664 150.298,243.316 150.116,244.513 150.571 C 245.744 151.039,247.270 148.692,246.800 147.053 C 246.481 145.941,246.515 75.791,246.835 74.471 C 247.155 73.150,247.774 72.454,248.647 72.434 C 249.016 72.426,249.488 72.351,249.696 72.269 C 250.839 71.816,266.644 72.015,267.479 72.493 " stroke="none" fill="#acc9ac" fill-rule="evenodd"></path><path id="path3" d="M133.685 40.103 C 133.270 40.269,132.874 40.553,132.804 40.734 C 132.734 40.916,132.671 70.587,132.662 106.671 L 132.647 172.278 133.123 172.664 C 133.565 173.021,134.396 173.050,144.370 173.050 L 155.140 173.050 155.421 172.559 C 155.645 172.167,155.704 166.835,155.713 146.099 C 155.724 123.816,155.771 120.027,156.045 119.396 L 156.364 118.662 157.392 121.906 C 157.958 123.690,158.520 125.678,158.643 126.324 C 158.765 126.970,159.049 127.804,159.273 128.179 C 159.498 128.553,159.740 129.316,159.812 129.873 C 159.883 130.430,160.188 131.609,160.488 132.492 C 160.789 133.375,161.139 134.588,161.267 135.188 C 161.394 135.788,161.784 137.212,162.134 138.352 C 162.483 139.493,162.910 141.015,163.083 141.735 C 163.256 142.455,163.594 143.633,163.835 144.354 C 164.076 145.074,164.483 146.399,164.740 147.300 C 164.998 148.200,165.410 149.624,165.656 150.464 C 165.902 151.304,166.335 152.875,166.619 153.955 C 166.903 155.035,167.431 156.767,167.792 157.802 C 168.153 158.838,168.544 160.278,168.661 161.003 C 168.778 161.727,169.014 162.598,169.187 162.939 C 169.359 163.279,169.669 164.324,169.874 165.261 C 170.080 166.198,170.486 167.644,170.776 168.475 C 171.066 169.306,171.304 170.189,171.304 170.436 C 171.304 171.417,172.137 172.586,173.003 172.819 C 173.906 173.062,194.073 173.164,194.456 172.928 C 195.087 172.538,195.111 170.127,195.099 106.287 C 195.087 43.020,195.074 40.899,194.683 40.371 L 194.279 39.825 184.046 39.831 C 173.121 39.837,172.357 39.904,172.044 40.875 C 171.959 41.138,171.880 52.057,171.867 65.139 C 171.845 87.655,171.822 88.964,171.449 89.655 C 171.231 90.056,171.003 90.334,170.942 90.272 C 170.804 90.134,169.668 86.444,169.084 84.233 C 168.623 82.489,167.433 78.566,166.603 76.050 C 166.325 75.210,165.690 73.099,165.190 71.358 C 164.690 69.618,164.007 67.458,163.672 66.558 C 163.338 65.657,162.998 64.528,162.917 64.048 C 162.775 63.211,161.870 60.235,161.057 57.938 C 160.845 57.338,160.163 55.128,159.542 53.028 C 155.416 39.076,156.005 40.140,152.273 39.904 C 147.674 39.612,134.564 39.753,133.685 40.103 M154.510 40.536 C 155.411 40.903,155.980 42.037,156.781 45.063 C 157.171 46.536,158.912 52.294,159.610 54.420 C 159.920 55.365,160.175 56.299,160.175 56.496 C 160.175 56.692,160.376 57.229,160.622 57.688 C 160.868 58.147,161.172 59.076,161.297 59.751 C 161.421 60.426,161.700 61.326,161.915 61.750 C 162.130 62.174,162.467 63.305,162.665 64.264 C 162.862 65.224,163.211 66.402,163.441 66.883 C 163.670 67.364,164.104 68.691,164.406 69.831 C 165.303 73.224,166.967 78.673,167.937 81.397 C 168.215 82.177,168.503 83.208,168.576 83.688 C 168.650 84.168,168.992 85.445,169.337 86.525 C 169.681 87.605,170.170 89.201,170.422 90.071 C 170.949 91.892,171.092 91.965,171.859 90.804 C 172.501 89.835,172.564 88.855,172.252 84.777 C 172.151 83.455,172.093 73.065,172.124 61.688 L 172.181 41.002 172.955 40.678 C 173.595 40.411,175.317 40.353,182.936 40.343 C 195.490 40.326,194.318 40.267,194.619 40.927 C 194.990 41.742,194.959 170.868,194.587 171.959 L 194.326 172.722 184.179 172.722 C 171.609 172.722,172.176 172.859,171.522 169.667 C 171.375 168.947,171.107 168.071,170.927 167.721 C 170.747 167.371,170.425 166.229,170.211 165.184 C 169.997 164.138,169.677 163.050,169.500 162.765 C 169.323 162.481,169.065 161.527,168.927 160.647 C 168.788 159.766,168.425 158.342,168.120 157.482 C 167.615 156.060,166.801 153.206,165.936 149.829 C 165.754 149.119,165.473 148.282,165.310 147.969 C 165.148 147.655,164.812 146.541,164.563 145.493 C 164.314 144.445,163.912 143.199,163.670 142.724 C 163.428 142.250,163.230 141.684,163.230 141.468 C 163.230 141.252,162.977 140.143,162.668 139.005 C 162.359 137.866,161.918 136.197,161.687 135.297 C 161.456 134.397,161.025 132.924,160.729 132.024 C 160.433 131.124,160.126 129.995,160.047 129.514 C 159.968 129.034,159.727 128.298,159.512 127.878 C 159.297 127.458,158.916 126.192,158.665 125.065 C 158.065 122.366,156.436 117.343,156.230 117.560 C 155.384 118.452,155.364 119.136,155.379 146.040 C 155.389 163.608,155.321 172.086,155.167 172.374 C 154.946 172.786,154.638 172.797,144.335 172.760 L 133.731 172.722 133.314 172.207 C 132.904 171.701,132.897 170.420,132.951 106.413 L 133.006 41.135 133.879 40.693 C 134.876 40.190,153.313 40.049,154.510 40.536 M248.520 71.312 C 246.954 71.358,246.342 71.459,246.136 71.707 C 245.915 71.974,245.866 79.620,245.892 109.943 C 245.915 136.024,245.853 148.067,245.694 148.556 C 245.324 149.699,245.175 149.720,237.764 149.688 C 233.991 149.671,230.814 149.714,230.703 149.783 C 229.754 150.369,229.681 149.558,229.627 137.948 L 229.576 126.896 229.081 126.488 C 228.426 125.948,226.681 126.105,223.131 127.022 C 221.691 127.395,219.727 127.824,218.767 127.977 C 217.807 128.130,216.233 128.506,215.270 128.811 C 214.307 129.117,212.687 129.487,211.670 129.633 C 210.652 129.779,209.555 130.033,209.231 130.198 C 208.907 130.362,208.291 130.496,207.864 130.496 C 206.158 130.496,206.221 129.864,206.221 147.081 L 206.221 162.248 206.868 163.223 C 207.224 163.759,207.573 164.463,207.644 164.788 C 207.716 165.112,208.009 165.631,208.296 165.941 C 208.583 166.250,209.010 166.939,209.246 167.471 C 209.539 168.135,209.970 168.625,210.620 169.033 C 211.140 169.361,212.008 170.000,212.548 170.454 C 213.580 171.323,214.979 172.021,216.802 172.578 C 218.489 173.094,254.402 173.231,257.292 172.732 C 261.719 171.968,266.388 168.405,267.700 164.789 C 267.989 163.991,268.373 163.176,268.553 162.977 C 269.185 162.278,269.255 157.179,269.216 114.760 C 269.177 72.560,269.173 72.240,268.740 71.811 C 268.307 71.381,256.241 71.084,248.520 71.312 M267.755 71.718 C 269.025 71.972,268.967 69.545,268.849 117.621 L 268.740 162.029 268.245 162.825 C 267.973 163.262,267.616 164.067,267.452 164.614 C 266.874 166.535,263.210 170.073,260.447 171.378 C 257.563 172.742,257.892 172.722,237.534 172.722 L 218.985 172.722 217.161 172.224 C 214.959 171.622,214.083 171.192,212.541 169.956 C 211.894 169.437,211.066 168.865,210.701 168.685 C 210.275 168.475,209.844 167.962,209.493 167.246 C 209.193 166.635,208.726 165.861,208.456 165.526 C 208.186 165.191,207.965 164.753,207.965 164.553 C 207.965 164.352,207.646 163.755,207.256 163.224 L 206.547 162.260 206.547 147.056 C 206.547 130.214,206.485 130.933,207.930 130.933 C 208.234 130.933,208.881 130.751,209.369 130.528 C 209.857 130.305,211.110 130.008,212.154 129.869 C 213.197 129.729,214.965 129.334,216.082 128.991 C 217.198 128.648,218.652 128.297,219.313 128.210 C 219.973 128.124,221.446 127.804,222.586 127.499 C 226.867 126.356,228.612 126.249,229.184 127.095 C 229.272 127.226,229.337 132.183,229.329 138.112 C 229.314 148.308,229.335 148.921,229.721 149.437 L 230.128 149.982 237.650 149.938 C 244.812 149.896,245.193 149.874,245.608 149.464 C 246.041 149.037,246.045 148.713,246.092 111.123 C 246.142 70.130,246.103 71.866,246.979 71.732 C 247.978 71.580,267.001 71.567,267.755 71.718 " stroke="none" fill="#8ca88c" fill-rule="evenodd"></path><path id="path4" d="M133.020 39.395 C 132.509 39.650,131.976 40.633,131.972 41.325 C 131.971 41.581,131.983 71.133,131.999 106.998 C 132.030 176.329,131.988 173.458,132.957 173.497 C 133.104 173.503,138.183 173.509,144.244 173.511 L 155.265 173.515 155.696 172.946 C 156.120 172.386,156.127 171.963,156.096 147.227 C 156.064 121.069,156.109 119.362,156.763 122.174 C 156.968 123.058,157.317 124.138,157.537 124.575 C 157.758 125.011,158.049 125.889,158.184 126.525 C 158.319 127.161,158.572 127.957,158.746 128.295 C 158.921 128.632,159.262 129.861,159.505 131.024 C 159.748 132.188,160.138 133.573,160.372 134.101 C 160.606 134.629,160.960 135.876,161.159 136.871 C 161.359 137.866,161.723 139.023,161.969 139.444 C 162.255 139.933,162.484 140.874,162.606 142.062 C 162.736 143.333,162.931 144.101,163.225 144.501 C 163.462 144.822,163.847 145.952,164.082 147.011 C 164.316 148.070,164.761 149.700,165.069 150.634 C 165.378 151.568,165.630 152.570,165.630 152.860 C 165.630 153.412,166.838 157.338,167.730 159.686 C 168.015 160.437,168.249 161.263,168.249 161.522 C 168.249 162.012,168.521 163.043,169.566 166.503 C 169.910 167.643,170.343 169.175,170.527 169.907 C 171.514 173.823,170.588 173.546,182.600 173.513 C 188.125 173.497,192.960 173.575,193.431 173.688 C 194.914 174.042,195.524 173.182,195.535 170.721 C 195.739 122.743,195.478 40.196,195.121 39.716 L 194.715 39.171 183.937 39.222 C 178.009 39.251,172.936 39.275,172.665 39.277 C 171.239 39.286,171.299 38.175,171.348 63.830 C 171.396 88.744,171.324 90.523,170.429 86.634 C 170.277 85.974,169.980 85.041,169.768 84.561 C 169.557 84.081,169.172 82.755,168.913 81.615 C 168.653 80.475,167.904 77.936,167.247 75.972 C 166.590 74.009,165.946 71.898,165.816 71.281 C 165.687 70.663,165.451 70.010,165.291 69.828 C 165.132 69.647,164.901 68.872,164.778 68.107 C 164.654 67.342,164.315 66.260,164.024 65.703 C 163.732 65.146,163.339 63.870,163.150 62.868 C 162.961 61.866,162.662 60.825,162.485 60.555 C 162.308 60.285,161.959 59.193,161.708 58.128 C 161.458 57.063,161.107 55.848,160.927 55.428 C 160.596 54.651,159.886 52.252,158.981 48.849 C 158.705 47.811,158.326 46.682,158.139 46.339 C 157.952 45.997,157.574 44.696,157.300 43.448 C 156.816 41.244,156.156 39.947,155.261 39.441 C 154.792 39.176,133.547 39.133,133.020 39.395 M152.273 39.904 C 156.005 40.140,155.416 39.076,159.542 53.028 C 160.163 55.128,160.845 57.338,161.057 57.938 C 161.870 60.235,162.775 63.211,162.917 64.048 C 162.998 64.528,163.338 65.657,163.672 66.558 C 164.007 67.458,164.690 69.618,165.190 71.358 C 165.690 73.099,166.325 75.210,166.603 76.050 C 167.433 78.566,168.623 82.489,169.084 84.233 C 169.668 86.444,170.804 90.134,170.942 90.272 C 171.003 90.334,171.231 90.056,171.449 89.655 C 171.822 88.964,171.845 87.655,171.867 65.139 C 171.880 52.057,171.959 41.138,172.044 40.875 C 172.357 39.904,173.121 39.837,184.046 39.831 L 194.279 39.825 194.683 40.371 C 195.074 40.899,195.087 43.020,195.099 106.287 C 195.111 170.127,195.087 172.538,194.456 172.928 C 194.073 173.164,173.906 173.062,173.003 172.819 C 172.137 172.586,171.304 171.417,171.304 170.436 C 171.304 170.189,171.066 169.306,170.776 168.475 C 170.486 167.644,170.080 166.198,169.874 165.261 C 169.669 164.324,169.359 163.279,169.187 162.939 C 169.014 162.598,168.778 161.727,168.661 161.003 C 168.544 160.278,168.153 158.838,167.792 157.802 C 167.431 156.767,166.903 155.035,166.619 153.955 C 166.335 152.875,165.902 151.304,165.656 150.464 C 165.410 149.624,164.998 148.200,164.740 147.300 C 164.483 146.399,164.076 145.074,163.835 144.354 C 163.594 143.633,163.256 142.455,163.083 141.735 C 162.910 141.015,162.483 139.493,162.134 138.352 C 161.784 137.212,161.394 135.788,161.267 135.188 C 161.139 134.588,160.789 133.375,160.488 132.492 C 160.188 131.609,159.883 130.430,159.812 129.873 C 159.740 129.316,159.498 128.553,159.273 128.179 C 159.049 127.804,158.765 126.970,158.643 126.324 C 158.520 125.678,157.958 123.690,157.392 121.906 L 156.364 118.662 156.045 119.396 C 155.771 120.027,155.724 123.816,155.713 146.099 C 155.704 166.835,155.645 172.167,155.421 172.559 L 155.140 173.050 144.370 173.050 C 134.396 173.050,133.565 173.021,133.123 172.664 L 132.647 172.278 132.662 106.671 C 132.671 70.587,132.734 40.916,132.804 40.734 C 133.157 39.815,143.746 39.363,152.273 39.904 M245.705 71.263 C 245.283 71.712,245.277 72.265,245.291 109.782 C 245.299 130.717,245.300 148.014,245.293 148.221 C 245.262 149.181,244.362 149.294,237.190 149.241 L 230.439 149.191 230.218 148.369 C 230.081 147.860,230.007 143.560,230.025 137.070 C 230.053 126.637,230.051 126.591,229.578 125.926 C 229.059 125.198,227.835 125.004,226.903 125.503 C 226.352 125.798,222.753 126.568,221.928 126.568 C 221.602 126.568,221.086 126.765,220.781 127.005 C 220.467 127.252,219.895 127.441,219.466 127.441 C 218.332 127.441,215.261 128.065,214.056 128.540 C 213.005 128.954,209.175 129.624,207.856 129.624 C 207.158 129.624,206.655 130.031,205.958 131.159 C 205.378 132.096,205.660 161.802,206.263 163.339 C 207.077 165.416,207.502 166.240,208.136 166.970 C 208.486 167.373,208.911 167.997,209.080 168.356 C 209.249 168.715,209.632 169.128,209.931 169.273 C 210.230 169.419,210.966 169.997,211.566 170.558 C 214.645 173.439,215.071 173.487,237.637 173.481 C 258.748 173.476,259.458 173.433,261.526 172.045 C 262.223 171.577,263.228 170.940,263.761 170.629 C 264.293 170.318,265.034 169.679,265.407 169.210 C 265.780 168.742,266.410 168.013,266.807 167.591 C 267.203 167.169,267.719 166.267,267.954 165.586 C 268.188 164.905,268.608 164.039,268.887 163.661 L 269.394 162.975 269.552 149.736 C 269.879 122.386,269.666 71.817,269.222 71.341 C 269.008 71.111,268.762 70.921,268.677 70.919 C 255.592 70.698,246.102 70.840,245.705 71.263 M268.740 71.811 C 269.173 72.240,269.177 72.560,269.216 114.760 C 269.255 157.179,269.185 162.278,268.553 162.977 C 268.373 163.176,267.989 163.991,267.700 164.789 C 266.388 168.405,261.719 171.968,257.292 172.732 C 254.402 173.231,218.489 173.094,216.802 172.578 C 214.979 172.021,213.580 171.323,212.548 170.454 C 212.008 170.000,211.140 169.361,210.620 169.033 C 209.970 168.625,209.539 168.135,209.246 167.471 C 209.010 166.939,208.583 166.250,208.296 165.941 C 208.009 165.631,207.716 165.112,207.644 164.788 C 207.573 164.463,207.224 163.759,206.868 163.223 L 206.221 162.248 206.221 147.081 C 206.221 129.864,206.158 130.496,207.864 130.496 C 208.291 130.496,208.907 130.362,209.231 130.198 C 209.555 130.033,210.652 129.779,211.670 129.633 C 212.687 129.487,214.307 129.117,215.270 128.811 C 216.233 128.506,217.807 128.130,218.767 127.977 C 219.727 127.824,221.691 127.395,223.131 127.022 C 226.681 126.105,228.426 125.948,229.081 126.488 L 229.576 126.896 229.627 137.948 C 229.681 149.558,229.754 150.369,230.703 149.783 C 230.814 149.714,233.991 149.671,237.764 149.688 C 245.175 149.720,245.324 149.699,245.694 148.556 C 245.853 148.067,245.915 136.024,245.892 109.943 C 245.866 79.620,245.915 71.974,246.136 71.707 C 246.492 71.278,248.089 71.231,259.465 71.314 C 267.940 71.375,268.321 71.396,268.740 71.811 " stroke="none" fill="#698e69" fill-rule="evenodd"></path></g></svg>