<?xml version="1.0" standalone="no"?>
<!DOCTYPE svg PUBLIC "-//W3C//DTD SVG 20010904//EN"
 "http://www.w3.org/TR/2001/REC-SVG-20010904/DTD/svg10.dtd">
<svg version="1.0" xmlns="http://www.w3.org/2000/svg"
 width="900.000000pt" height="900.000000pt" viewBox="0 0 900.000000 900.000000"
 preserveAspectRatio="xMidYMid meet">
<metadata>
Created by potrace 1.16, written by Peter Selinger 2001-2019
</metadata>
<g transform="translate(0.000000,900.000000) scale(0.100000,-0.100000)"
fill="#000000" stroke="none">
<path d="M0 4500 l0 -4500 4500 0 4500 0 0 4500 0 4500 -4500 0 -4500 0 0
-4500z m2304 3288 c19 -62 132 -430 251 -818 233 -758 463 -1509 500 -1630
l24 -75 3 1315 3 1315 563 3 562 2 0 -3255 0 -3255 -556 -2 c-486 -3 -557 -1
-564 12 -4 8 -46 150 -93 315 -48 165 -179 622 -292 1015 -113 393 -254 883
-313 1088 l-107 373 -3 -1397 c-1 -815 -6 -1400 -11 -1403 -5 -3 -257 -5 -560
-3 l-551 2 0 3255 0 3255 555 0 554 0 35 -112z m5514 -1438 l22 0 0 -2162 c-1
-2355 2 -2229 -55 -2370 -63 -156 -225 -319 -376 -378 -130 -52 -113 -51
-1124 -50 l-944 0 -78 23 c-113 33 -206 88 -293 176 -114 115 -173 232 -199
391 -5 30 -10 370 -10 756 l-1 701 67 15 c38 8 284 65 548 126 264 61 488 112
498 114 17 3 18 -26 17 -584 l0 -588 410 0 410 0 0 1908 c0 1049 0 1912 0
1917 0 7 186 9 542 8 299 -2 553 -3 566 -3z"/>
</g>
</svg>
