<svg xmlns="http://www.w3.org/2000/svg" width="72.199" height="72.5" viewBox="0 0 72.199 72.5">
  <g id="speed" transform="translate(-1 -1)">
    <path id="Path_104" data-name="Path 104" d="M45,43a7,7,0,1,0-7-7A7.008,7.008,0,0,0,45,43Zm0-12a5,5,0,1,1-5,5A5.006,5.006,0,0,1,45,31Z" transform="translate(7.657 6.125)"/>
    <path id="Path_105" data-name="Path 105" d="M45,39a3,3,0,1,0-3-3A3,3,0,0,0,45,39Zm0-4a1,1,0,1,1-1,1A1,1,0,0,1,45,35Z" transform="translate(7.278 6)"/>
    <path id="Path_106" data-name="Path 106" d="M59.155,60.754l.8-1.286H73.2l-1.519-7.65-6.992-5.871c.079-.872.133-1.747.133-2.628,0-.075-.007-.147-.008-.222h.008V4.508A3.5,3.5,0,0,0,61.34,1H4.481A3.5,3.5,0,0,0,1,4.508V53.621a3.5,3.5,0,0,0,3.481,3.508h26.9l-.464,2.339H44.162l.8,1.286-.45,1.135a7.058,7.058,0,0,0,2.286,8.218l2.2,1.66,2.222-4.477a7.276,7.276,0,0,1,2,5.04V73.5H56.1l1.931-2.432a9.717,9.717,0,0,0,1.412-9.6ZM46.9,59.468l-1.273-2.052A26.58,26.58,0,0,1,44.21,54.79H59.9a26.71,26.71,0,0,1-1.415,2.625l-1.272,2.052ZM44.426,31.4H59.688A26.707,26.707,0,0,1,60.9,52.452H43.218A26.707,26.707,0,0,1,44.426,31.4Zm1.315-2.339c.1-.165.2-.337.305-.5l3.367-5.091a3.163,3.163,0,0,1,5.286,0l3.367,5.091c.108.164.2.334.305.5H45.741ZM69.566,53.085l.8,4.044H61.331a29.031,29.031,0,0,0,2.98-8.457ZM4.481,3.339H61.34A1.167,1.167,0,0,1,62.5,4.508V15.032H3.321V4.508A1.167,1.167,0,0,1,4.481,3.339ZM31.843,54.79H4.481a1.167,1.167,0,0,1-1.16-1.169V17.371H62.5V31.963a29.075,29.075,0,0,0-2.5-4.7l-3.367-5.091a5.475,5.475,0,0,0-9.147,0l-3.367,5.091a29,29,0,0,0-4.824,16.052c0,.881.055,1.755.133,2.626l-6.992,5.871Zm2.7-1.7L39.8,48.672a29.031,29.031,0,0,0,2.98,8.457H33.746ZM56.215,69.607l-.822,1.034a9.59,9.59,0,0,0-2.656-5.126L50.58,63.341l-2.418,4.875a4.707,4.707,0,0,1-1.5-5.459l.376-.951H57.073l.21.53a7.361,7.361,0,0,1-1.069,7.271Z" transform="translate(0 0)"/>
    <path id="Path_107" data-name="Path 107" d="M11,5H5v6h6ZM9,9H7V7H9Z"/>
    <path id="Path_108" data-name="Path 108" d="M19,5H13v6h6ZM17,9H15V7h2Z" transform="translate(2.13)"/>
    <path id="Path_109" data-name="Path 109" d="M27,5H21v6h6ZM25,9H23V7h2Z" transform="translate(3.55)"/>
    <path id="Path_110" data-name="Path 110" d="M29,17H23V37H21V25H15V37H13V29H7v8H5v2H31V37H29Zm-4,2h2V37H25Zm-8,8h2V37H17ZM9,31h2v6H9Z" transform="translate(0 4.2)"/>
    <path id="Path_111" data-name="Path 111" d="M5,17H7v2H5Z" transform="translate(0 2.8)"/>
    <path id="Path_112" data-name="Path 112" d="M9,17H19v2H9Z" transform="translate(0 2.8)"/>
    <path id="Path_113" data-name="Path 113" d="M5,21H7v2H5Z" transform="translate(0 3.5)"/>
    <path id="Path_114" data-name="Path 114" d="M9,21H19v2H9Z" transform="translate(0 3.5)"/>
  </g>
</svg>
